# xmcd
#
# Track frame offsets:
#	150
#	23689
#	44240
#	66357
#	90686
#	112311
#	136948
#	160325
#	183634
#	205061
#
# Disc length: 3011 seconds
#
# Revision: 0
# Processed by: cddbd v1.5.2PL0 Copyright (c) Steve Scherf et al.
# Submitted via: EasyCDDAExtractor 16.0.9.1
#
DISCID=950bc10a
DTITLE=Various Artist - Cánh Thiệp Đầu Xuân
DYEAR=2010
DGENRE=Pop
TTITLE0=Quang Lê and Mai Thiên Vân - Ai Lên Xứ Hoa Đào
TTITLE1=Hương Thủy - Cánh Thiệp Đầu Xuân
TTITLE2=Quang Lê - Mùa Xuân Của Mẹ
TTITLE3=Như Quỳnh - Hỏi Nàng Xuân
TTITLE4=Duy Trường - Đón Xuân Này, Nhớ Xuân Xưa
TTITLE5=Mai Thiên Vân - Mùa Đào Năm Trước
TTITLE6=Quang Lê - Nhớ Về Một Mùa Xuân
TTITLE7=Quỳnh Dung - Đan Áo Mùa Xuân
TTITLE8=Lý Duy Vũ - Xuân Tha Hương, Xuân Lạc Xứ
TTITLE9=Nguyên Lê - Phiên Gác Đêm Xuân
EXTD=
EXTT0=
EXTT1=
EXTT2=
EXTT3=
EXTT4=
EXTT5=
EXTT6=
EXTT7=
EXTT8=
EXTT9=
PLAYORDER=
